<svg xmlns="http://www.w3.org/2000/svg" xmlns:xlink="http://www.w3.org/1999/xlink" viewBox="0 0 1024 1024" width="1024" height="1024" preserveAspectRatio="xMidYMid meet" style="width: 100%; height: 100%; transform: translate3d(0px, 0px, 0px); content-visibility: visible;" id="Crystal Ball"><defs><clipPath id="__lottie_element_2"><rect width="1024" height="1024" x="0" y="0"/></clipPath><radialGradient id="__lottie_element_12" spreadMethod="pad" gradientUnits="userSpaceOnUse" cx="124" cy="-262" r="635.6477011678718" fx="124" fy="-262"><stop offset="12%" stop-color="rgb(206,147,216)"/><stop offset="56%" stop-color="rgb(188,109,202)"/><stop offset="99%" stop-color="rgb(171,71,188)"/></radialGradient><radialGradient id="__lottie_element_16" spreadMethod="pad" gradientUnits="userSpaceOnUse" cx="108" cy="-182" r="489.65293831447593" fx="108" fy="-182"><stop offset="12%" stop-color="rgb(116,87,186)"/><stop offset="56%" stop-color="rgb(104,87,186)"/><stop offset="99%" stop-color="rgb(92,87,186)"/></radialGradient><radialGradient id="__lottie_element_20" spreadMethod="pad" gradientUnits="userSpaceOnUse" cx="-107.68181610107422" cy="-58.83546829223633" r="868.5376669547936" fx="-28.92595403042739" fy="9.747543686220595"><stop offset="28%" stop-color="rgb(129,212,250)"/><stop offset="64%" stop-color="rgb(129,212,250)"/><stop offset="99%" stop-color="rgb(129,212,250)"/></radialGradient><mask id="__lottie_element_22"><path fill="url(#__lottie_element_21)" d=" M0,-390.0799865722656 C215.43600463867188,-390.0799865722656 390.0799865722656,-215.43499755859375 390.0799865722656,0 C390.0799865722656,215.43600463867188 215.43600463867188,390.0799865722656 0,390.0799865722656 C-215.43499755859375,390.0799865722656 -390.0799865722656,215.43600463867188 -390.0799865722656,0 C-390.0799865722656,-215.43499755859375 -215.43499755859375,-390.0799865722656 0,-390.0799865722656z"/></mask><radialGradient id="__lottie_element_21" spreadMethod="pad" gradientUnits="userSpaceOnUse" cx="-107.68181610107422" cy="-58.83546829223633" r="868.5376669547936" fx="-28.92595403042739" fy="9.747543686220595"><stop stop-color="rgb(255,255,255)" offset="28%" stop-opacity="0.009999999776482582"/><stop stop-color="rgb(255,255,255)" offset="64%" stop-opacity="0.5049999952316284"/><stop stop-color="rgb(255,255,255)" offset="100%" stop-opacity="1"/></radialGradient><radialGradient id="__lottie_element_26" spreadMethod="pad" gradientUnits="userSpaceOnUse" cx="-112.61254119873047" cy="-70.95280456542969" r="557.1652540252451" fx="-105.48312857403141" fy="-86.94551068134973"><stop offset="28%" stop-color="rgb(129,212,250)"/><stop offset="64%" stop-color="rgb(129,212,250)"/><stop offset="99%" stop-color="rgb(129,212,250)"/></radialGradient><mask id="__lottie_element_28"><path fill="url(#__lottie_element_27)" d=" M0,-390.0799865722656 C215.43600463867188,-390.0799865722656 390.0799865722656,-215.43499755859375 390.0799865722656,0 C390.0799865722656,215.43600463867188 215.43600463867188,390.0799865722656 0,390.0799865722656 C-215.43499755859375,390.0799865722656 -390.0799865722656,215.43600463867188 -390.0799865722656,0 C-390.0799865722656,-215.43499755859375 -215.43499755859375,-390.0799865722656 0,-390.0799865722656z"/></mask><radialGradient id="__lottie_element_27" spreadMethod="pad" gradientUnits="userSpaceOnUse" cx="-112.61254119873047" cy="-70.95280456542969" r="557.1652540252451" fx="-105.48312857403141" fy="-86.94551068134973"><stop stop-color="rgb(255,255,255)" offset="28%" stop-opacity="0.009999999776482582"/><stop stop-color="rgb(255,255,255)" offset="64%" stop-opacity="0.5049999952316284"/><stop stop-color="rgb(255,255,255)" offset="100%" stop-opacity="1"/></radialGradient><linearGradient id="__lottie_element_33" spreadMethod="pad" gradientUnits="userSpaceOnUse" x1="-24" y1="600" x2="-36" y2="-276"><stop offset="9%" stop-color="rgb(29,68,179)"/><stop offset="55%" stop-color="rgb(29,68,179)"/><stop offset="99%" stop-color="rgb(29,68,179)"/></linearGradient><mask id="__lottie_element_35"><path fill="url(#__lottie_element_34)" d=" M-104.13899993896484,-353.9200134277344 C-341.0190124511719,-379.44000244140625 -509.51800537109375,-115.24400329589844 -496.4590148925781,34.959999084472656 C-477.0190124511719,258.55999755859375 -280.62109375,422.4195251464844 -22.045249938964844,356.2423400878906 C24.091434478759766,344.49591064453125 131.32566833496094,275.26806640625 120.97078704833984,197.35247802734375 C119.4930191040039,153.22372436523438 72.38534545898438,115.72525787353516 104.05986022949219,68.88397216796875 C118.13155364990234,44.69374465942383 190.2076416015625,25.129575729370117 195.46099853515625,-74.4000015258789 C197.67994689941406,-122.43943786621094 132.74099731445312,-328.3999938964844 -104.13899993896484,-353.9200134277344z"/></mask><linearGradient id="__lottie_element_34" spreadMethod="pad" gradientUnits="userSpaceOnUse" x1="-24" y1="600" x2="-36" y2="-276"><stop stop-color="rgb(255,255,255)" offset="9%" stop-opacity="0.009999999776482582"/><stop stop-color="rgb(255,255,255)" offset="54%" stop-opacity="0.5049999952316284"/><stop stop-color="rgb(255,255,255)" offset="100%" stop-opacity="1"/></linearGradient><g id="__lottie_element_36"><g transform="matrix(0.9562111496925354,0.29267776012420654,-0.29267776012420654,0.9562111496925354,140.9403076171875,-137.96212768554688)" opacity="1" style="display: block;"><g opacity="1" transform="matrix(1,0,0,1,647.0189819335938,399.44000244140625)"><path fill="rgb(184,0,150)" fill-opacity="1" d=" M-354.22186279296875,-404.5421447753906 C-591.2638549804688,-427.7653503417969 -613.849853515625,-23.45785140991211 -599.3451538085938,126.56632232666016 C-577.7528076171875,349.8986511230469 -354.59625244140625,475.709228515625 -87.61388397216797,402.50970458984375 C-41.70759582519531,389.92352294921875 53.048274993896484,320.5617370605469 30.361875534057617,244.44313049316406 C-8.764632225036621,116.51973724365234 -149.0632781982422,121.38297271728516 -147.78146362304688,6.151447772979736 C-157.42620849609375,-118.2732162475586 10.421339988708496,-159.9038848876953 -19.55913543701172,-281.7232666015625 C-39.45303726196289,-346.457763671875 -117.1798324584961,-381.31890869140625 -354.22186279296875,-404.5421447753906z"/></g></g></g><linearGradient id="__lottie_element_42" spreadMethod="pad" gradientUnits="userSpaceOnUse" x1="-174" y1="516" x2="170" y2="-334"><stop offset="9%" stop-color="rgb(103,58,183)"/><stop offset="55%" stop-color="rgb(103,58,183)"/><stop offset="99%" stop-color="rgb(103,58,183)"/></linearGradient><mask id="__lottie_element_44"><path fill="url(#__lottie_element_43)" d=" M263.177001953125,217.68446350097656 C277.6239013671875,86.85918426513672 75.5550308227539,77.94520568847656 121.40060424804688,-59.81038284301758 C139.49485778808594,-118.19581604003906 287.7915954589844,-101.8399658203125 293.9684753417969,-195.0193328857422 C294.78277587890625,-258.5757751464844 179.5271453857422,-390.0436096191406 -14.487861633300781,-358.95672607421875 C-120.94812774658203,-341.8984680175781 -362.1248474121094,-216.63528442382812 -320.8741760253906,61.4285888671875 C-262.8345031738281,452.6678466796875 238.43417358398438,418.4805908203125 263.177001953125,217.68446350097656z"/></mask><linearGradient id="__lottie_element_43" spreadMethod="pad" gradientUnits="userSpaceOnUse" x1="-174" y1="516" x2="170" y2="-334"><stop stop-color="rgb(255,255,255)" offset="9%" stop-opacity="0.009999999776482582"/><stop stop-color="rgb(255,255,255)" offset="54%" stop-opacity="0.5049999952316284"/><stop stop-color="rgb(255,255,255)" offset="100%" stop-opacity="1"/></linearGradient><g id="__lottie_element_45"><g transform="matrix(1.0349551439285278,0.3167797923088074,-0.3167797923088074,1.0349551439285278,142.83148193359375,-179.5195770263672)" opacity="1" style="display: block;"><g opacity="1" transform="matrix(1,0,0,1,475.447998046875,411.20098876953125)"><path fill="rgb(184,0,150)" fill-opacity="1" d=" M87.16199493408203,239.9511260986328 C76.43266296386719,128.64498901367188 -121.26451110839844,157.117431640625 -121.30194854736328,31.693632125854492 C-125.47991180419922,-71.45393371582031 11.35588264465332,-144.52056884765625 -36.42049789428711,-207.4124298095703 C-105.07846069335938,-262.65228271484375 -260.17138671875,-215.66282653808594 -315.8880615234375,-36.690059661865234 C-346.53363037109375,61.749053955078125 -358.9596252441406,165.13841247558594 -301.6411437988281,286.19873046875 C-247.82101440429688,399.8707580566406 97.62103271484375,352.98956298828125 87.16199493408203,239.9511260986328z"/></g></g></g><radialGradient id="__lottie_element_51" spreadMethod="pad" gradientUnits="userSpaceOnUse"><stop/><stop/><stop/></radialGradient><mask id="__lottie_element_53"><path fill="url(#__lottie_element_52)"/></mask><radialGradient id="__lottie_element_52" spreadMethod="pad" gradientUnits="userSpaceOnUse"><stop stop-color="rgb(255,255,255)"/><stop stop-color="rgb(255,255,255)"/><stop stop-color="rgb(255,255,255)"/></radialGradient><linearGradient id="__lottie_element_57" spreadMethod="pad" gradientUnits="userSpaceOnUse" x1="16" y1="154" x2="-8" y2="-170"><stop offset="9%" stop-color="rgb(255,255,255)"/><stop offset="55%" stop-color="rgb(255,255,255)"/><stop offset="99%" stop-color="rgb(255,255,255)"/></linearGradient><mask id="__lottie_element_59"><path fill="url(#__lottie_element_58)" d=" M-111.4749984741211,185.99000549316406 C-111.4749984741211,185.99000549316406 -169.875,31.110000610351562 -49.95500183105469,-112.33000183105469 C48.845001220703125,-230.57000732421875 138.0449981689453,-182.72999572753906 124.28500366210938,-132.3300018310547 C110.44499969482422,-81.93000030517578 67.48500061035156,-66.41000366210938 2.765000104904175,-15.770000457763672 C-82.75499725341797,51.11000061035156 -111.4749984741211,185.99000549316406 -111.4749984741211,185.99000549316406z"/></mask><linearGradient id="__lottie_element_58" spreadMethod="pad" gradientUnits="userSpaceOnUse" x1="16" y1="154" x2="-8" y2="-170"><stop stop-color="rgb(255,255,255)" offset="9%" stop-opacity="0.009999999776482582"/><stop stop-color="rgb(255,255,255)" offset="54%" stop-opacity="0.5049999952316284"/><stop stop-color="rgb(255,255,255)" offset="100%" stop-opacity="1"/></linearGradient><linearGradient id="__lottie_element_63" spreadMethod="pad" gradientUnits="userSpaceOnUse" x1="1" y1="121" x2="-1" y2="-25"><stop offset="0%" stop-color="rgb(255,255,255)"/><stop offset="50%" stop-color="rgb(255,255,255)"/><stop offset="99%" stop-color="rgb(255,255,255)"/></linearGradient><mask id="__lottie_element_65"><path fill="url(#__lottie_element_64)" d=" M56.560001373291016,-16.68000030517578 C40.959999084472656,-24.440000534057617 28.479999542236328,-34.20000076293945 23.040000915527344,-50.7599983215332 C23.040000915527344,-50.7599983215332 -0.07999999821186066,-127.31999969482422 -0.07999999821186066,-127.31999969482422 C-0.07999999821186066,-127.31999969482422 -23.200000762939453,-50.7599983215332 -23.200000762939453,-50.7599983215332 C-28.638999938964844,-34.279998779296875 -41.20000076293945,-24.440000534057617 -56.71900177001953,-16.68000030517578 C-56.71900177001953,-16.68000030517578 -95.36000061035156,0.03999999910593033 -95.36000061035156,0.03999999910593033 C-95.36000061035156,0.03999999910593033 -55.599998474121094,16.520000457763672 -55.599998474121094,16.520000457763672 C-40,24.280000686645508 -28.638999938964844,34.91999816894531 -23.1200008392334,51.400001525878906 C-23.1200008392334,51.400001525878906 0,127.31999969482422 0,127.31999969482422 C0,127.31999969482422 23.121000289916992,51.400001525878906 23.121000289916992,51.400001525878906 C28.559999465942383,34.91999816894531 40,24.280000686645508 55.599998474121094,16.520000457763672 C55.599998474121094,16.520000457763672 95.36000061035156,0.03999999910593033 95.36000061035156,0.03999999910593033 C95.36000061035156,0.03999999910593033 56.560001373291016,-16.68000030517578 56.560001373291016,-16.68000030517578z"/></mask><linearGradient id="__lottie_element_64" spreadMethod="pad" gradientUnits="userSpaceOnUse" x1="1" y1="121" x2="-1" y2="-25"><stop stop-color="rgb(255,255,255)" offset="0%" stop-opacity="0.019999999552965164"/><stop stop-color="rgb(255,255,255)" offset="50%" stop-opacity="0.5099999904632568"/><stop stop-color="rgb(255,255,255)" offset="100%" stop-opacity="1"/></linearGradient><linearGradient id="__lottie_element_69" spreadMethod="pad" gradientUnits="userSpaceOnUse" x1="-1" y1="123.5" x2="0" y2="-89"><stop offset="0%" stop-color="rgb(255,255,255)"/><stop offset="50%" stop-color="rgb(255,255,255)"/><stop offset="99%" stop-color="rgb(255,255,255)"/></linearGradient><mask id="__lottie_element_71"><path fill="url(#__lottie_element_70)" d=" M56.560001373291016,-16.68000030517578 C40.95899963378906,-24.440000534057617 28.479999542236328,-34.20000076293945 23.038999557495117,-50.7599983215332 C23.038999557495117,-50.7599983215332 -0.08100000023841858,-127.31999969482422 -0.08100000023841858,-127.31999969482422 C-0.08100000023841858,-127.31999969482422 -23.201000213623047,-50.7599983215332 -23.201000213623047,-50.7599983215332 C-28.639999389648438,-34.279998779296875 -41.20100021362305,-24.440000534057617 -56.720001220703125,-16.68000030517578 C-56.720001220703125,-16.68000030517578 -95.36100006103516,0.03999999910593033 -95.36100006103516,0.03999999910593033 C-95.36100006103516,0.03999999910593033 -55.599998474121094,16.520000457763672 -55.599998474121094,16.520000457763672 C-40.000999450683594,24.280000686645508 -28.639999389648438,34.91999816894531 -23.121000289916992,51.400001525878906 C-23.121000289916992,51.400001525878906 -0.0010000000474974513,127.31999969482422 -0.0010000000474974513,127.31999969482422 C-0.0010000000474974513,127.31999969482422 23.1200008392334,51.400001525878906 23.1200008392334,51.400001525878906 C28.55900001525879,34.91999816894531 39.999000549316406,24.280000686645508 55.5989990234375,16.520000457763672 C55.5989990234375,16.520000457763672 95.36000061035156,0.03999999910593033 95.36000061035156,0.03999999910593033 C95.36000061035156,0.03999999910593033 56.560001373291016,-16.68000030517578 56.560001373291016,-16.68000030517578z"/></mask><linearGradient id="__lottie_element_70" spreadMethod="pad" gradientUnits="userSpaceOnUse" x1="-1" y1="123.5" x2="0" y2="-89"><stop stop-color="rgb(255,255,255)" offset="0%" stop-opacity="0.019999999552965164"/><stop stop-color="rgb(255,255,255)" offset="50%" stop-opacity="0.5099999904632568"/><stop stop-color="rgb(255,255,255)" offset="100%" stop-opacity="1"/></linearGradient><filter id="__lottie_element_78" filterUnits="objectBoundingBox" x="0%" y="0%" width="100%" height="100%"><feComponentTransfer in="SourceGraphic"><feFuncA type="table" tableValues="1.0 0.0"/></feComponentTransfer></filter><mask id="__lottie_element_45_2" mask-type="alpha"><g filter="url(#__lottie_element_78)"><rect width="1024" height="1024" x="0" y="0" fill="#ffffff" opacity="0"/><use xmlns:ns1="http://www.w3.org/1999/xlink" ns1:href="#__lottie_element_45"/></g></mask><filter id="__lottie_element_79" filterUnits="objectBoundingBox" x="0%" y="0%" width="100%" height="100%"><feComponentTransfer in="SourceGraphic"><feFuncA type="table" tableValues="1.0 0.0"/></feComponentTransfer></filter><mask id="__lottie_element_36_2" mask-type="alpha"><g filter="url(#__lottie_element_79)"><rect width="1024" height="1024" x="0" y="0" fill="#ffffff" opacity="0"/><use xmlns:ns2="http://www.w3.org/1999/xlink" ns2:href="#__lottie_element_36"/></g></mask></defs><g clip-path="url(#__lottie_element_2)"><g transform="matrix(1,0,0,1,0,0)" opacity="1" style="display: block;"><g opacity="1" transform="matrix(1,0,0,1,512,853.0800170898438)"><path fill="rgb(138,86,56)" fill-opacity="1" d=" M-262.9599914550781,31.31999969482422 C-262.9599914550781,-3.0799999237060547 -214.8800048828125,-124.5999984741211 -214.8800048828125,-124.5999984741211 C-168.55999755859375,-138.9199981689453 165.9199981689453,-126.76000213623047 216.8800048828125,-126.76000213623047 C216.8800048828125,-126.76000213623047 262.9599914550781,-28.1200008392334 262.9599914550781,31.31999969482422 C262.9599914550781,90.75900268554688 121.5199966430664,138.9199981689453 0.47999998927116394,138.9199981689453 C-120.55999755859375,138.9199981689453 -262.9599914550781,90.75900268554688 -262.9599914550781,31.31999969482422z"/></g><g opacity="1" transform="matrix(1,0,0,1,512.47998046875,748)"><path fill="rgb(255,176,121)" fill-opacity="1" d=" M0,-94 C119.51399993896484,-94 216.39999389648438,-51.915000915527344 216.39999389648438,0 C216.39999389648438,51.915000915527344 119.51399993896484,94 0,94 C-119.51399993896484,94 -216.39999389648438,51.915000915527344 -216.39999389648438,0 C-216.39999389648438,-51.915000915527344 -119.51399993896484,-94 0,-94z"/></g><g opacity="1" transform="matrix(1,0,0,1,444.32000732421875,841.6400146484375)"><path fill="rgb(204,133,82)" fill-opacity="1" d=" M-134.9600067138672,7.559999942779541 C-110.80000305175781,21.31999969482422 -72.55999755859375,20.280000686645508 -42.880001068115234,25.639999389648438 C-5.119999885559082,32.52000045776367 16.239999771118164,61.31999969482422 89.04000091552734,60.03900146484375 C115.04000091552734,59.560001373291016 175.67999267578125,56.599998474121094 172.32000732421875,56.68000030517578 C170.24000549316406,52.439998626708984 158.39999389648438,48.36000061035156 135.36000061035156,44.7599983215332 C114.23999786376953,41.400001525878906 99.04000091552734,41.720001220703125 74.55999755859375,41.720001220703125 C55.84000015258789,41.720001220703125 30.15999984741211,36.119998931884766 4.239999771118164,21.8799991607666 C-7.599999904632568,15.399999618530273 -26,8.199999809265137 -44,4.519999980926514 C-71.68000030517578,-1.159999966621399 -90.95999908447266,4.840000152587891 -129.60000610351562,-13.479999542236328 C-148.0800018310547,-22.200000762939453 -163.0399932861328,-40.279998779296875 -166.55999755859375,-61.31999969482422 C-166.55999755859375,-61.31999969482422 -175.67999267578125,-35.08000183105469 -175.67999267578125,-35.08000183105469 C-163.67999267578125,-13.081000328063965 -152.72000122070312,-2.5199999809265137 -134.9600067138672,7.559999942779541z"/></g><g opacity="1" transform="matrix(1,0,0,1,673.0399780273438,822.801025390625)"><path fill="rgb(204,133,82)" fill-opacity="1" d=" M34.48099899291992,4.879000186920166 C-27.440000534057617,44.23899841308594 -79.76000213623047,39.8390007019043 -79.76000213623047,39.8390007019043 C-84.16100311279297,42.71900177001953 -48.08100128173828,50.47999954223633 -21.2810001373291,45.999000549316406 C31.360000610351562,37.19900131225586 63.361000061035156,10.798999786376953 84.16100311279297,-24.559999465942383 C81.28099822998047,-33.52000045776367 74.95899963378906,-50.47999954223633 74.95899963378906,-50.47999954223633 C68.95899963378906,-36.000999450683594 62.000999450683594,-12.640999794006348 34.48099899291992,4.879000186920166z"/></g><g opacity="1" transform="matrix(1,0,0,1,527.8800048828125,928.8400268554688)"><path fill="rgb(168,108,68)" fill-opacity="1" d=" M68.19999694824219,10.520999908447266 C33.959999084472656,16.760000228881836 1.159999966621399,6.120999813079834 -32.52000045776367,-1.7990000247955322 C-78.68000030517578,-12.598999977111816 -165.39999389648438,-11.081000328063965 -165.39999389648438,-11.081000328063965 C-170.60000610351562,-8.520000457763672 -124.5199966430664,8.199999809265137 -102.12000274658203,10.119999885559082 C-81.72000122070312,11.878999710083008 -60.119998931884766,10.119999885559082 -40.7599983215332,18.040000915527344 C-13.479999542236328,29.15999984741211 12.920000076293945,34.7599983215332 39.31999969482422,34.7599983215332 C89.4800033569336,34.7599983215332 155,4.519999980926514 170.60000610351562,-34.7599983215332 C170.60000610351562,-34.7599983215332 141.9600067138672,-17.959999084472656 119.72000122070312,-6.679999828338623 C103.55999755859375,1.559999942779541 86.12000274658203,7.321000099182129 68.19999694824219,10.520999908447266z"/></g><g opacity="1" transform="matrix(1,0,0,1,331.67999267578125,892.47998046875)"><path fill="rgb(168,108,68)" fill-opacity="1" d=" M-45.119998931884766,-0.6399999856948853 C-38.31999969482422,10.239999771118164 -31.360000610351562,20.31999969482422 -22.239999771118164,29.360000610351562 C-6.800000190734863,44.720001220703125 12.720000267028809,53.599998474121094 25.280000686645508,51.36000061035156 C25.280000686645508,51.36000061035156 -19.200000762939453,15.4399995803833 -14.479999542236328,6.080999851226807 C-12.079999923706055,1.2799999713897705 80.23999786376953,8.880999565124512 80.23999786376953,8.880999565124512 C80.23999786376953,8.880999565124512 52.2400016784668,-5.840000152587891 24.959999084472656,-11.119000434875488 C7.28000020980835,-14.5600004196167 -25.040000915527344,-7.679999828338623 -54.47999954223633,-28.399999618530273 C-70.72000122070312,-39.84000015258789 -73.19999694824219,-53.599998474121094 -73.19999694824219,-53.599998474121094 C-73.19999694824219,-53.599998474121094 -79.04000091552734,-33.68000030517578 -80.23999786376953,-26.07900047302246 C-63.20000076293945,-8.239999771118164 -47.36000061035156,-4.239999771118164 -45.119998931884766,-0.6399999856948853z"/></g><g opacity="1" transform="matrix(1,0,0,1,742.6790161132812,873.0399780273438)"><path fill="rgb(168,108,68)" fill-opacity="1" d=" M11.720999717712402,-20.719999313354492 C-4.439000129699707,-6.241000175476074 -29.959999084472656,23.040000915527344 -29.959999084472656,38.15999984741211 C-29.959999084472656,38.15999984741211 -1.319000005722046,10.399999618530273 17.959999084472656,-2.321000099182129 C22.76099967956543,-5.440999984741211 26.200000762939453,-9.440999984741211 29.959999084472656,-13.680000305175781 C29.959999084472656,-13.680000305175781 28.040000915527344,-28 25,-38.15999984741211 C23.801000595092773,-31.361000061035156 18.920000076293945,-27.1200008392334 11.720999717712402,-20.719999313354492z"/></g></g><g transform="matrix(1,0,0,1,0,0)" opacity="1" style="display: block;"><g opacity="1" transform="matrix(1,0,0,1,512,853.0800170898438)"><path fill="rgb(138,86,56)" fill-opacity="1" d=" M-262.9599914550781,31.31999969482422 C-262.9599914550781,-3.0799999237060547 -214.8800048828125,-124.5999984741211 -214.8800048828125,-124.5999984741211 C-168.55999755859375,-138.9199981689453 165.9199981689453,-126.76000213623047 216.8800048828125,-126.76000213623047 C216.8800048828125,-126.76000213623047 262.9599914550781,-28.1200008392334 262.9599914550781,31.31999969482422 C262.9599914550781,90.75900268554688 121.5199966430664,138.9199981689453 0.47999998927116394,138.9199981689453 C-120.55999755859375,138.9199981689453 -262.9599914550781,90.75900268554688 -262.9599914550781,31.31999969482422z"/></g><g opacity="1" transform="matrix(1,0,0,1,512.47998046875,748)"><path fill="rgb(255,176,121)" fill-opacity="1" d=" M0,-94 C119.51399993896484,-94 216.39999389648438,-51.915000915527344 216.39999389648438,0 C216.39999389648438,51.915000915527344 119.51399993896484,94 0,94 C-119.51399993896484,94 -216.39999389648438,51.915000915527344 -216.39999389648438,0 C-216.39999389648438,-51.915000915527344 -119.51399993896484,-94 0,-94z"/></g><g opacity="1" transform="matrix(1,0,0,1,444.32000732421875,841.6400146484375)"><path fill="rgb(204,133,82)" fill-opacity="1" d=" M-134.9600067138672,7.559999942779541 C-110.80000305175781,21.31999969482422 -72.55999755859375,20.280000686645508 -42.880001068115234,25.639999389648438 C-5.119999885559082,32.52000045776367 16.239999771118164,61.31999969482422 89.04000091552734,60.03900146484375 C115.04000091552734,59.560001373291016 175.67999267578125,56.599998474121094 172.32000732421875,56.68000030517578 C170.24000549316406,52.439998626708984 158.39999389648438,48.36000061035156 135.36000061035156,44.7599983215332 C114.23999786376953,41.400001525878906 99.04000091552734,41.720001220703125 74.55999755859375,41.720001220703125 C55.84000015258789,41.720001220703125 30.15999984741211,36.119998931884766 4.239999771118164,21.8799991607666 C-7.599999904632568,15.399999618530273 -26,8.199999809265137 -44,4.519999980926514 C-71.68000030517578,-1.159999966621399 -90.95999908447266,4.840000152587891 -129.60000610351562,-13.479999542236328 C-148.0800018310547,-22.200000762939453 -163.0399932861328,-40.279998779296875 -166.55999755859375,-61.31999969482422 C-166.55999755859375,-61.31999969482422 -175.67999267578125,-35.08000183105469 -175.67999267578125,-35.08000183105469 C-163.67999267578125,-13.081000328063965 -152.72000122070312,-2.5199999809265137 -134.9600067138672,7.559999942779541z"/></g><g opacity="1" transform="matrix(1,0,0,1,673.0399780273438,822.801025390625)"><path fill="rgb(204,133,82)" fill-opacity="1" d=" M34.48099899291992,4.879000186920166 C-27.440000534057617,44.23899841308594 -79.76000213623047,39.8390007019043 -79.76000213623047,39.8390007019043 C-84.16100311279297,42.71900177001953 -48.08100128173828,50.47999954223633 -21.2810001373291,45.999000549316406 C31.360000610351562,37.19900131225586 63.361000061035156,10.798999786376953 84.16100311279297,-24.559999465942383 C81.28099822998047,-33.52000045776367 74.95899963378906,-50.47999954223633 74.95899963378906,-50.47999954223633 C68.95899963378906,-36.000999450683594 62.000999450683594,-12.640999794006348 34.48099899291992,4.879000186920166z"/></g><g opacity="1" transform="matrix(1,0,0,1,527.8800048828125,928.8400268554688)"><path fill="rgb(168,108,68)" fill-opacity="1" d=" M68.19999694824219,10.520999908447266 C33.959999084472656,16.760000228881836 1.159999966621399,6.120999813079834 -32.52000045776367,-1.7990000247955322 C-78.68000030517578,-12.598999977111816 -165.39999389648438,-11.081000328063965 -165.39999389648438,-11.081000328063965 C-170.60000610351562,-8.520000457763672 -124.5199966430664,8.199999809265137 -102.12000274658203,10.119999885559082 C-81.72000122070312,11.878999710083008 -60.119998931884766,10.119999885559082 -40.7599983215332,18.040000915527344 C-13.479999542236328,29.15999984741211 12.920000076293945,34.7599983215332 39.31999969482422,34.7599983215332 C89.4800033569336,34.7599983215332 155,4.519999980926514 170.60000610351562,-34.7599983215332 C170.60000610351562,-34.7599983215332 141.9600067138672,-17.959999084472656 119.72000122070312,-6.679999828338623 C103.55999755859375,1.559999942779541 86.12000274658203,7.321000099182129 68.19999694824219,10.520999908447266z"/></g><g opacity="1" transform="matrix(1,0,0,1,331.67999267578125,892.47998046875)"><path fill="rgb(168,108,68)" fill-opacity="1" d=" M-45.119998931884766,-0.6399999856948853 C-38.31999969482422,10.239999771118164 -31.360000610351562,20.31999969482422 -22.239999771118164,29.360000610351562 C-6.800000190734863,44.720001220703125 12.720000267028809,53.599998474121094 25.280000686645508,51.36000061035156 C25.280000686645508,51.36000061035156 -19.200000762939453,15.4399995803833 -14.479999542236328,6.080999851226807 C-12.079999923706055,1.2799999713897705 80.23999786376953,8.880999565124512 80.23999786376953,8.880999565124512 C80.23999786376953,8.880999565124512 52.2400016784668,-5.840000152587891 24.959999084472656,-11.119000434875488 C7.28000020980835,-14.5600004196167 -25.040000915527344,-7.679999828338623 -54.47999954223633,-28.399999618530273 C-70.72000122070312,-39.84000015258789 -73.19999694824219,-53.599998474121094 -73.19999694824219,-53.599998474121094 C-73.19999694824219,-53.599998474121094 -79.04000091552734,-33.68000030517578 -80.23999786376953,-26.07900047302246 C-63.20000076293945,-8.239999771118164 -47.36000061035156,-4.239999771118164 -45.119998931884766,-0.6399999856948853z"/></g><g opacity="1" transform="matrix(1,0,0,1,742.6790161132812,873.0399780273438)"><path fill="rgb(168,108,68)" fill-opacity="1" d=" M11.720999717712402,-20.719999313354492 C-4.439000129699707,-6.241000175476074 -29.959999084472656,23.040000915527344 -29.959999084472656,38.15999984741211 C-29.959999084472656,38.15999984741211 -1.319000005722046,10.399999618530273 17.959999084472656,-2.321000099182129 C22.76099967956543,-5.440999984741211 26.200000762939453,-9.440999984741211 29.959999084472656,-13.680000305175781 C29.959999084472656,-13.680000305175781 28.040000915527344,-28 25,-38.15999984741211 C23.801000595092773,-31.361000061035156 18.920000076293945,-27.1200008392334 11.720999717712402,-20.719999313354492z"/></g></g><g transform="matrix(1,0,0,1,0,0)" opacity="1" style="display: block;"><g opacity="1" transform="matrix(1,0,0,1,512,422.0799865722656)"><path fill="url(#__lottie_element_12)" fill-opacity="1" d=" M-390.0799865722656,0 C-390.0799865722656,215.43600463867188 -215.43499755859375,390.0799865722656 0,390.0799865722656 C215.43600463867188,390.0799865722656 390.0799865722656,215.43600463867188 390.0799865722656,0 C390.0799865722656,-215.43600463867188 215.43600463867188,-390.0799865722656 0,-390.0799865722656 C-215.43499755859375,-390.0799865722656 -390.0799865722656,-215.43600463867188 -390.0799865722656,0z"/></g></g><g transform="matrix(1,0,0,1,0,0)" opacity="0.00013466464148024216" style="display: none;"><g opacity="1" transform="matrix(1,0,0,1,512,422.0799865722656)"><path fill="url(#__lottie_element_16)" fill-opacity="1" d=" M-390.0799865722656,0 C-390.0799865722656,215.43600463867188 -215.43499755859375,390.0799865722656 0,390.0799865722656 C215.43600463867188,390.0799865722656 390.0799865722656,215.43600463867188 390.0799865722656,0 C390.0799865722656,-215.43600463867188 215.43600463867188,-390.0799865722656 0,-390.0799865722656 C-215.43499755859375,-390.0799865722656 -390.0799865722656,-215.43600463867188 -390.0799865722656,0z"/></g></g><g transform="matrix(1,0,0,1,0,0)" opacity="0.2981111111111109" style="display: none;"><g opacity="1" transform="matrix(1,0,0,1,512,422.0799865722656)"><path fill="url(#__lottie_element_20)" mask="url(#__lottie_element_22)" fill-opacity="1" d="M0 0 M0,-390.0799865722656 C215.43600463867188,-390.0799865722656 390.0799865722656,-215.43499755859375 390.0799865722656,0 C390.0799865722656,215.43600463867188 215.43600463867188,390.0799865722656 0,390.0799865722656 C-215.43499755859375,390.0799865722656 -390.0799865722656,215.43600463867188 -390.0799865722656,0 C-390.0799865722656,-215.43499755859375 -215.43499755859375,-390.0799865722656 0,-390.0799865722656z"/></g></g><g transform="matrix(1,0,0,1,0,0)" opacity="1" style="display: block;"><g opacity="1" transform="matrix(1,0,0,1,512,422.0799865722656)"><path fill="url(#__lottie_element_26)" mask="url(#__lottie_element_28)" fill-opacity="1" d="M0 0 M0,-390.0799865722656 C215.43600463867188,-390.0799865722656 390.0799865722656,-215.43499755859375 390.0799865722656,0 C390.0799865722656,215.43600463867188 215.43600463867188,390.0799865722656 0,390.0799865722656 C-215.43499755859375,390.0799865722656 -390.0799865722656,215.43600463867188 -390.0799865722656,0 C-390.0799865722656,-215.43499755859375 -215.43499755859375,-390.0799865722656 0,-390.0799865722656z"/></g></g><g mask="url(#__lottie_element_36_2)" style="display: block;"><g transform="matrix(0.9562111496925354,0.29267776012420654,-0.29267776012420654,0.9562111496925354,140.9403076171875,-137.96212768554688)" opacity="0.39"><g opacity="1" transform="matrix(1,0,0,1,647.0189819335938,399.44000244140625)"><path fill="url(#__lottie_element_33)" mask="url(#__lottie_element_35)" fill-opacity="1" d="M0 0 M-104.13899993896484,-353.9200134277344 C-341.0190124511719,-379.44000244140625 -509.51800537109375,-115.24400329589844 -496.4590148925781,34.959999084472656 C-477.0190124511719,258.55999755859375 -280.62109375,422.4195251464844 -22.045249938964844,356.2423400878906 C24.091434478759766,344.49591064453125 131.32566833496094,275.26806640625 120.97078704833984,197.35247802734375 C119.4930191040039,153.22372436523438 72.38534545898438,115.72525787353516 104.05986022949219,68.88397216796875 C118.13155364990234,44.69374465942383 190.2076416015625,25.129575729370117 195.46099853515625,-74.4000015258789 C197.67994689941406,-122.43943786621094 132.74099731445312,-328.3999938964844 -104.13899993896484,-353.9200134277344z"/></g></g></g><g mask="url(#__lottie_element_45_2)" style="display: block;"><g transform="matrix(0.9562111496925354,0.29267776012420654,-0.29267776012420654,0.9562111496925354,140.9403076171875,-137.96212768554688)" opacity="0.5995294117647066"><g opacity="1" transform="matrix(1,0,0,1,475.447998046875,411.20098876953125)"><path fill="url(#__lottie_element_42)" mask="url(#__lottie_element_44)" fill-opacity="1" d="M0 0 M263.177001953125,217.68446350097656 C277.6239013671875,86.85918426513672 75.5550308227539,77.94520568847656 121.40060424804688,-59.81038284301758 C139.49485778808594,-118.19581604003906 287.7915954589844,-101.8399658203125 293.9684753417969,-195.0193328857422 C294.78277587890625,-258.5757751464844 179.5271453857422,-390.0436096191406 -14.487861633300781,-358.95672607421875 C-120.94812774658203,-341.8984680175781 -362.1248474121094,-216.63528442382812 -320.8741760253906,61.4285888671875 C-262.8345031738281,452.6678466796875 238.43417358398438,418.4805908203125 263.177001953125,217.68446350097656z"/></g></g></g><g style="display: none;"><g><path fill="url(#__lottie_element_51)" mask="url(#__lottie_element_53)"/><g/></g></g><g transform="matrix(1,0,0,1,0,0)" opacity="1" style="display: block;"><g opacity="1" transform="matrix(1,0,0,1,309.1549987792969,307.2900085449219)"><path fill="url(#__lottie_element_57)" mask="url(#__lottie_element_59)" fill-opacity="1" d="M0 0 M-111.4749984741211,185.99000549316406 C-111.4749984741211,185.99000549316406 -169.875,31.110000610351562 -49.95500183105469,-112.33000183105469 C48.845001220703125,-230.57000732421875 138.0449981689453,-182.72999572753906 124.28500366210938,-132.3300018310547 C110.44499969482422,-81.93000030517578 67.48500061035156,-66.41000366210938 2.765000104904175,-15.770000457763672 C-82.75499725341797,51.11000061035156 -111.4749984741211,185.99000549316406 -111.4749984741211,185.99000549316406z"/></g></g><g transform="matrix(1.560579538345337,0,0,1.560579538345337,-384.5576171875,-163.68923950195312)" opacity="1" style="display: block;"><g opacity="1" transform="matrix(1,0,0,1,687.1199951171875,294.8399963378906)"><path fill="url(#__lottie_element_63)" mask="url(#__lottie_element_65)" fill-opacity="1" d="M0 0 M56.560001373291016,-16.68000030517578 C40.959999084472656,-24.440000534057617 28.479999542236328,-34.20000076293945 23.040000915527344,-50.7599983215332 C23.040000915527344,-50.7599983215332 -0.07999999821186066,-127.31999969482422 -0.07999999821186066,-127.31999969482422 C-0.07999999821186066,-127.31999969482422 -23.200000762939453,-50.7599983215332 -23.200000762939453,-50.7599983215332 C-28.638999938964844,-34.279998779296875 -41.20000076293945,-24.440000534057617 -56.71900177001953,-16.68000030517578 C-56.71900177001953,-16.68000030517578 -95.36000061035156,0.03999999910593033 -95.36000061035156,0.03999999910593033 C-95.36000061035156,0.03999999910593033 -55.599998474121094,16.520000457763672 -55.599998474121094,16.520000457763672 C-40,24.280000686645508 -28.638999938964844,34.91999816894531 -23.1200008392334,51.400001525878906 C-23.1200008392334,51.400001525878906 0,127.31999969482422 0,127.31999969482422 C0,127.31999969482422 23.121000289916992,51.400001525878906 23.121000289916992,51.400001525878906 C28.559999465942383,34.91999816894531 40,24.280000686645508 55.599998474121094,16.520000457763672 C55.599998474121094,16.520000457763672 95.36000061035156,0.03999999910593033 95.36000061035156,0.03999999910593033 C95.36000061035156,0.03999999910593033 56.560001373291016,-16.68000030517578 56.560001373291016,-16.68000030517578z"/></g></g><g transform="matrix(0.8231549263000488,0,0,0.8231549263000488,107.52178955078125,100.09429931640625)" opacity="1" style="display: block;"><g opacity="1" transform="matrix(1,0,0,1,609.9199829101562,571.6400146484375)"><path fill="url(#__lottie_element_69)" mask="url(#__lottie_element_71)" fill-opacity="1" d="M0 0 M56.560001373291016,-16.68000030517578 C40.95899963378906,-24.440000534057617 28.479999542236328,-34.20000076293945 23.038999557495117,-50.7599983215332 C23.038999557495117,-50.7599983215332 -0.08100000023841858,-127.31999969482422 -0.08100000023841858,-127.31999969482422 C-0.08100000023841858,-127.31999969482422 -23.201000213623047,-50.7599983215332 -23.201000213623047,-50.7599983215332 C-28.639999389648438,-34.279998779296875 -41.20100021362305,-24.440000534057617 -56.720001220703125,-16.68000030517578 C-56.720001220703125,-16.68000030517578 -95.36100006103516,0.03999999910593033 -95.36100006103516,0.03999999910593033 C-95.36100006103516,0.03999999910593033 -55.599998474121094,16.520000457763672 -55.599998474121094,16.520000457763672 C-40.000999450683594,24.280000686645508 -28.639999389648438,34.91999816894531 -23.121000289916992,51.400001525878906 C-23.121000289916992,51.400001525878906 -0.0010000000474974513,127.31999969482422 -0.0010000000474974513,127.31999969482422 C-0.0010000000474974513,127.31999969482422 23.1200008392334,51.400001525878906 23.1200008392334,51.400001525878906 C28.55900001525879,34.91999816894531 39.999000549316406,24.280000686645508 55.5989990234375,16.520000457763672 C55.5989990234375,16.520000457763672 95.36000061035156,0.03999999910593033 95.36000061035156,0.03999999910593033 C95.36000061035156,0.03999999910593033 56.560001373291016,-16.68000030517578 56.560001373291016,-16.68000030517578z"/></g></g><g transform="matrix(0.7300615906715393,0,0,0.7300615906715393,217.57037353515625,118.77288818359375)" opacity="1" style="display: block;"><g opacity="1" transform="matrix(1,0,0,1,807.9199829101562,444.3599853515625)"><path fill="rgb(255,255,255)" fill-opacity="1" d=" M42.79999923706055,-12.60099983215332 C31.040000915527344,-18.44099998474121 21.600000381469727,-25.881000518798828 17.44099998474121,-38.28099822998047 C17.44099998474121,-38.28099822998047 0,-96.12000274658203 0,-96.12000274658203 C0,-96.12000274658203 -17.43899917602539,-38.28099822998047 -17.43899917602539,-38.28099822998047 C-21.599000930786133,-25.801000595092773 -31.040000915527344,-18.44099998474121 -42.79999923706055,-12.60099983215332 C-42.79999923706055,-12.60099983215332 -71.91999816894531,0.039000000804662704 -71.91999816894531,0.039000000804662704 C-71.91999816894531,0.039000000804662704 -41.91999816894531,12.520000457763672 -41.91999816894531,12.520000457763672 C-30.15999984741211,18.360000610351562 -21.518999099731445,26.358999252319336 -17.43899917602539,38.8390007019043 C-17.43899917602539,38.8390007019043 0,96.12000274658203 0,96.12000274658203 C0,96.12000274658203 17.44099998474121,38.8390007019043 17.44099998474121,38.8390007019043 C21.600000381469727,26.358999252319336 30.15999984741211,18.360000610351562 41.91999816894531,12.520000457763672 C41.91999816894531,12.520000457763672 71.91999816894531,0.039000000804662704 71.91999816894531,0.039000000804662704 C71.91999816894531,0.039000000804662704 42.79999923706055,-12.60099983215332 42.79999923706055,-12.60099983215332z"/></g></g><g transform="matrix(0.005365373101085424,0,0,0.005365373101085424,749.675537109375,585.6392211914062)" opacity="1" style="display: block;"><g opacity="1" transform="matrix(1,0,0,1,807.9199829101562,444.3599853515625)"><path fill="rgb(255,255,255)" fill-opacity="1" d=" M42.79999923706055,-12.60099983215332 C31.040000915527344,-18.44099998474121 21.600000381469727,-25.881000518798828 17.44099998474121,-38.28099822998047 C17.44099998474121,-38.28099822998047 0,-96.12000274658203 0,-96.12000274658203 C0,-96.12000274658203 -17.43899917602539,-38.28099822998047 -17.43899917602539,-38.28099822998047 C-21.599000930786133,-25.801000595092773 -31.040000915527344,-18.44099998474121 -42.79999923706055,-12.60099983215332 C-42.79999923706055,-12.60099983215332 -71.91999816894531,0.039000000804662704 -71.91999816894531,0.039000000804662704 C-71.91999816894531,0.039000000804662704 -41.91999816894531,12.520000457763672 -41.91999816894531,12.520000457763672 C-30.15999984741211,18.360000610351562 -21.518999099731445,26.358999252319336 -17.43899917602539,38.8390007019043 C-17.43899917602539,38.8390007019043 0,96.12000274658203 0,96.12000274658203 C0,96.12000274658203 17.44099998474121,38.8390007019043 17.44099998474121,38.8390007019043 C21.600000381469727,26.358999252319336 30.15999984741211,18.360000610351562 41.91999816894531,12.520000457763672 C41.91999816894531,12.520000457763672 71.91999816894531,0.039000000804662704 71.91999816894531,0.039000000804662704 C71.91999816894531,0.039000000804662704 42.79999923706055,-12.60099983215332 42.79999923706055,-12.60099983215332z"/></g></g><g transform="matrix(0,0,0,0,754,348)" opacity="1" style="display: block;"><g opacity="1" transform="matrix(1,0,0,1,807.9199829101562,444.3599853515625)"><path fill="rgb(255,255,255)" fill-opacity="1" d=" M42.79999923706055,-12.60099983215332 C31.040000915527344,-18.44099998474121 21.600000381469727,-25.881000518798828 17.44099998474121,-38.28099822998047 C17.44099998474121,-38.28099822998047 0,-96.12000274658203 0,-96.12000274658203 C0,-96.12000274658203 -17.43899917602539,-38.28099822998047 -17.43899917602539,-38.28099822998047 C-21.599000930786133,-25.801000595092773 -31.040000915527344,-18.44099998474121 -42.79999923706055,-12.60099983215332 C-42.79999923706055,-12.60099983215332 -71.91999816894531,0.039000000804662704 -71.91999816894531,0.039000000804662704 C-71.91999816894531,0.039000000804662704 -41.91999816894531,12.520000457763672 -41.91999816894531,12.520000457763672 C-30.15999984741211,18.360000610351562 -21.518999099731445,26.358999252319336 -17.43899917602539,38.8390007019043 C-17.43899917602539,38.8390007019043 0,96.12000274658203 0,96.12000274658203 C0,96.12000274658203 17.44099998474121,38.8390007019043 17.44099998474121,38.8390007019043 C21.600000381469727,26.358999252319336 30.15999984741211,18.360000610351562 41.91999816894531,12.520000457763672 C41.91999816894531,12.520000457763672 71.91999816894531,0.039000000804662704 71.91999816894531,0.039000000804662704 C71.91999816894531,0.039000000804662704 42.79999923706055,-12.60099983215332 42.79999923706055,-12.60099983215332z"/></g></g></g></svg>